<?xml version="1.0" encoding="UTF-8" standalone="no"?>
<!-- Created with Inkscape (http://www.inkscape.org/) -->

<svg
   width="256"
   height="256"
   viewBox="0 0 67.733334 67.733333"
   version="1.1"
   id="svg1"
   xml:space="preserve"
   inkscape:version="1.3 (0e150ed6c4, 2023-07-21)"
   sodipodi:docname="icon_small.svg"
   inkscape:export-filename="icon256.png"
   inkscape:export-xdpi="96"
   inkscape:export-ydpi="96"
   xmlns:inkscape="http://www.inkscape.org/namespaces/inkscape"
   xmlns:sodipodi="http://sodipodi.sourceforge.net/DTD/sodipodi-0.dtd"
   xmlns="http://www.w3.org/2000/svg"
   xmlns:svg="http://www.w3.org/2000/svg"><sodipodi:namedview
     id="namedview1"
     pagecolor="#ffffff"
     bordercolor="#000000"
     borderopacity="0"
     inkscape:showpageshadow="2"
     inkscape:pageopacity="0.0"
     inkscape:pagecheckerboard="0"
     inkscape:deskcolor="#d1d1d1"
     inkscape:document-units="mm"
     inkscape:zoom="0.938593"
     inkscape:cx="256.2346"
     inkscape:cy="54.869363"
     inkscape:window-width="1829"
     inkscape:window-height="949"
     inkscape:window-x="0"
     inkscape:window-y="0"
     inkscape:window-maximized="1"
     inkscape:current-layer="layer2"
     showgrid="false" /><defs
     id="defs1"><rect
       x="-1.0654245"
       y="2.130849"
       width="255.70189"
       height="251.44019"
       id="rect13" /><rect
       x="-1.5067378"
       y="0.75336891"
       width="256.8988"
       height="254.63869"
       id="rect12" /><rect
       x="-0.53271226"
       y="1.5981368"
       width="254.63646"
       height="252.50561"
       id="rect1" /><filter
       style="color-interpolation-filters:sRGB;"
       inkscape:label="Colorize"
       id="filter2"
       x="0"
       y="0"
       width="1"
       height="1"><feComposite
         in2="SourceGraphic"
         operator="arithmetic"
         k1="0"
         k2="1"
         result="composite1"
         id="feComposite1" /><feColorMatrix
         in="composite1"
         values="1"
         type="saturate"
         result="colormatrix1"
         id="feColorMatrix1" /><feFlood
         flood-opacity="1"
         flood-color="rgb(133,201,240)"
         result="flood1"
         id="feFlood1" /><feBlend
         in="flood1"
         in2="colormatrix1"
         mode="multiply"
         result="blend1"
         id="feBlend1" /><feBlend
         in2="blend1"
         mode="screen"
         result="blend2"
         id="feBlend2" /><feColorMatrix
         in="blend2"
         values="1"
         type="saturate"
         result="colormatrix2"
         id="feColorMatrix2" /><feComposite
         in="colormatrix2"
         in2="SourceGraphic"
         operator="in"
         k2="1"
         result="composite2"
         id="feComposite2" /></filter><rect
       x="-1.5067378"
       y="0.75336891"
       width="256.8988"
       height="254.63869"
       id="rect12-6" /><rect
       x="-1.0654244"
       y="2.1308489"
       width="255.70189"
       height="251.44019"
       id="rect13-4" /></defs><g
     inkscape:label="Layer 1"
     inkscape:groupmode="layer"
     id="layer1"><path
       style="fill:#85c9f0;fill-opacity:1"
       d="m 30.600905,66.624611 c -0.136552,-0.02321 -0.263629,-0.08924 -0.368556,-0.191484 -0.09234,-0.08998 -0.153283,-0.190746 -0.193149,-0.319344 l -0.0168,-0.0542 -0.0019,-2.685402 -0.0019,-2.685403 -2.397288,-9.6e-5 c -2.319289,-9.3e-5 -2.399453,-5.43e-4 -2.463844,-0.01383 -0.140839,-0.02907 -0.270489,-0.100469 -0.367732,-0.202523 -0.0859,-0.09015 -0.138271,-0.179928 -0.17605,-0.301796 l -0.0168,-0.0542 -0.0036,-2.424701 -0.0036,-2.424702 -2.676287,-0.0036 -2.676287,-0.0036 -0.05493,-0.0157 c -0.168612,-0.04821 -0.312133,-0.146266 -0.40552,-0.277074 -0.0445,-0.06232 -0.09393,-0.169899 -0.113634,-0.247294 l -0.0166,-0.06519 v -1.823084 -1.823084 l 0.0166,-0.06519 c 0.06551,-0.257294 0.25523,-0.448915 0.519154,-0.524369 l 0.05493,-0.0157 2.676287,-0.0036 2.676287,-0.0036 0.0019,-0.887842 0.0019,-0.887841 -2.612509,-2.46e-4 c -1.546768,-1.45e-4 -2.643149,-0.003 -2.687619,-0.007 -0.173454,-0.01564 -0.317734,-0.08279 -0.440429,-0.204988 -0.09174,-0.09137 -0.150213,-0.193597 -0.187209,-0.327299 l -0.01919,-0.06936 -0.0022,-1.77933 c -0.0015,-1.192122 3.05e-4,-1.800989 0.0054,-1.844961 0.01957,-0.170333 0.08595,-0.309538 0.203835,-0.427431 0.09145,-0.09146 0.19558,-0.15092 0.328894,-0.187809 l 0.06936,-0.01919 2.670847,-0.0019 2.670848,-0.0019 -0.0019,-0.887736 -0.0019,-0.887736 -2.676287,-0.0037 -2.676287,-0.0037 -0.06563,-0.01949 c -0.12887,-0.03827 -0.219254,-0.08992 -0.308898,-0.176523 -0.12182,-0.117688 -0.193141,-0.262637 -0.212258,-0.431382 -0.0059,-0.05248 -0.0076,-0.565445 -0.0059,-1.851917 l 0.0023,-1.77933 0.01577,-0.05834 c 0.05233,-0.193555 0.168494,-0.350275 0.330344,-0.445666 0.05957,-0.03511 0.105356,-0.054 0.189601,-0.07823 l 0.05469,-0.01573 2.676287,-0.0036 2.676287,-0.0036 v -0.889665 -0.889665 l -2.683579,-0.0036 c -2.541936,-0.0035 -2.685846,-0.0043 -2.726507,-0.01657 -0.265041,-0.07982 -0.442888,-0.257338 -0.513078,-0.51212 l -0.02009,-0.07292 -0.0022,-1.77933 c -0.0015,-1.192123 3.05e-4,-1.80099 0.0054,-1.844961 0.01437,-0.125105 0.0499,-0.222789 0.118086,-0.324734 0.09471,-0.141588 0.237031,-0.241424 0.41386,-0.290308 l 0.07014,-0.01939 2.670754,-0.0019 2.670754,-0.0019 0.0019,-2.426428 0.0019,-2.426428 0.01539,-0.04746 c 0.04478,-0.138102 0.09751,-0.226639 0.189415,-0.318046 0.09258,-0.09208 0.208987,-0.156483 0.344066,-0.190362 0.0455,-0.01141 0.226001,-0.01248 2.461041,-0.01454 l 2.411941,-0.0022 v -2.657319 c 0,-2.91114 -0.0033,-2.698511 0.04348,-2.827184 0.04294,-0.118181 0.130576,-0.23626 0.233184,-0.314182 0.05937,-0.04508 0.174833,-0.101783 0.252031,-0.123761 l 0.05834,-0.01661 1.811994,-0.0021 c 1.992862,-0.0023 1.870445,-0.0049 2.000201,0.04206 0.160359,0.05803 0.309009,0.191172 0.386477,0.346172 0.03509,0.07021 0.06071,0.155346 0.07023,0.233355 0.0057,0.04655 0.008,0.829342 0.008,2.692695 l 2.1e-5,2.627064 h 0.889587 0.889588 l 0.002,-2.670818 0.002,-2.670818 0.01629,-0.06048 c 0.03543,-0.131525 0.09953,-0.243641 0.19164,-0.335206 0.09164,-0.09109 0.19752,-0.150983 0.328872,-0.186014 l 0.061,-0.01627 h 1.830377 1.830376 l 0.06473,0.01649 c 0.10959,0.02792 0.220511,0.08692 0.306699,0.16313 0.08814,0.07794 0.175633,0.221699 0.210227,0.345428 l 0.01631,0.05834 0.0019,2.678111 0.0019,2.67811 h 0.893252 0.893253 v -2.657415 c 0,-2.911245 -0.0033,-2.698607 0.04348,-2.82728 0.04294,-0.118181 0.130576,-0.23626 0.233184,-0.314182 0.05936,-0.04508 0.174832,-0.101783 0.252031,-0.123761 l 0.05834,-0.01661 1.811995,-0.0021 c 1.58216,-0.0018 1.820014,-7.19e-4 1.875222,0.0088 0.277559,0.0479 0.492535,0.248761 0.569989,0.532567 l 0.01592,0.05834 0.002,2.670818 0.002,2.670818 h 0.8895 0.8895 l 0.0019,-2.670818 0.0019,-2.670818 0.01926,-0.06964 c 0.07158,-0.25877 0.26574,-0.44784 0.529576,-0.515692 0.04597,-0.01182 0.167033,-0.01264 1.879508,-0.01264 h 1.830376 l 0.06473,0.01649 c 0.247837,0.06314 0.43404,0.242537 0.512704,0.493973 l 0.02053,0.06563 0.0019,2.68166 0.0019,2.681661 2.411873,0.0019 2.411872,0.0019 0.07199,0.01986 c 0.248748,0.06862 0.42766,0.24243 0.505599,0.491179 l 0.02038,0.06506 0.0019,2.422782 0.0019,2.422782 2.670754,0.0019 2.670754,0.0019 0.06936,0.01919 c 0.13331,0.03689 0.237439,0.09635 0.328901,0.18781 0.09146,0.09146 0.150922,0.195591 0.187809,0.3289 l 0.01919,0.06936 0.0022,1.775684 c 0.0015,1.25703 -1.7e-4,1.796363 -0.0058,1.846481 -0.01073,0.09466 -0.03061,0.163494 -0.07051,0.244036 -0.08981,0.181329 -0.246272,0.30824 -0.458983,0.372303 -0.04066,0.01225 -0.184572,0.01312 -2.726507,0.01657 l -2.68358,0.0036 -0.0019,0.891488 -0.0019,0.891488 2.656262,9.6e-5 c 2.564847,9.2e-5 2.658521,5.64e-4 2.721894,0.01371 0.138287,0.02869 0.251851,0.08857 0.352651,0.185939 0.121808,0.117662 0.193129,0.262604 0.212265,0.431376 0.006,0.05257 0.0075,0.562218 0.0057,1.848271 -0.0023,1.621039 -0.0036,1.779812 -0.01457,1.823084 -0.03914,0.154147 -0.103445,0.266709 -0.210634,0.368681 -0.08519,0.08105 -0.185063,0.136855 -0.303354,0.169515 l -0.07123,0.01967 -2.674464,0.0019 -2.674464,0.0019 v 0.889491 0.889491 l 2.670818,0.0019 2.670818,0.0019 0.06936,0.01919 c 0.266194,0.07366 0.451567,0.262361 0.519448,0.52878 l 0.01645,0.06458 v 1.823084 1.823084 l -0.02009,0.07292 c -0.07311,0.265393 -0.26682,0.450197 -0.545066,0.520013 -0.04331,0.01087 -0.277318,0.01208 -2.714572,0.01406 l -2.667172,0.0022 v 0.88954 0.88954 h 2.649809 c 2.91244,0 2.70559,-0.0032 2.836172,0.04404 0.160159,0.05795 0.308853,0.191179 0.386282,0.346102 0.03796,0.07595 0.06216,0.160751 0.07112,0.249231 0.0056,0.05565 0.0072,0.600353 0.0054,1.847315 -0.0028,1.923055 9.9e-5,1.786158 -0.04061,1.903333 -0.08276,0.238214 -0.296649,0.419577 -0.546149,0.463086 -0.05456,0.0095 -0.395647,0.01088 -2.712148,0.01088 h -2.649745 l -0.0019,2.422878 -0.0019,2.422879 -0.01675,0.05742 c -0.07811,0.267843 -0.294258,0.464951 -0.560842,0.51144 -0.05447,0.0095 -0.366289,0.01088 -2.453276,0.01088 h -2.390873 l -0.0019,2.681756 -0.0019,2.681757 -0.01693,0.05812 c -0.03709,0.127356 -0.10324,0.236861 -0.197085,0.326276 -0.09082,0.08653 -0.184102,0.140147 -0.304508,0.175022 l -0.05757,0.01668 h -1.852253 -1.852254 l -0.06516,-0.02041 c -0.128799,-0.04035 -0.218776,-0.0948 -0.310391,-0.187827 -0.07149,-0.07259 -0.121946,-0.151694 -0.158023,-0.247744 -0.04925,-0.13112 -0.04607,0.06502 -0.04612,-2.84562 l -4.2e-5,-2.638002 h -0.889665 -0.889666 l -1.44e-4,2.638002 c -9.4e-5,1.71764 -0.0027,2.655812 -0.0074,2.689049 -0.02346,0.164312 -0.0899,0.298811 -0.203597,0.412147 -0.08522,0.08495 -0.180573,0.141506 -0.303513,0.180026 l -0.06506,0.02038 h -1.852417 -1.852253 l -0.05757,-0.01668 c -0.201099,-0.05825 -0.363956,-0.193709 -0.453375,-0.377111 -0.0176,-0.0361 -0.03946,-0.09188 -0.04857,-0.123969 l -0.01657,-0.05834 -0.0019,-2.681757 -0.0019,-2.681756 h -0.893225 -0.893253 l -5.5e-5,2.652587 c -3.7e-5,1.797777 -0.0025,2.667862 -0.0076,2.699988 -0.04292,0.268714 -0.250358,0.497136 -0.517855,0.570229 l -0.0615,0.0168 h -1.848607 -1.848608 l -0.06563,-0.02053 c -0.276751,-0.08658 -0.467694,-0.306767 -0.506217,-0.583736 -0.0055,-0.03985 -0.0079,-0.842594 -0.0079,-2.69604 V 60.689106 H 35.772508 34.88293 l -0.0019,2.670818 -0.0019,2.670818 -0.01986,0.07199 c -0.06845,0.248141 -0.243238,0.427802 -0.492148,0.505881 l -0.06409,0.0201 -1.834023,10e-4 c -1.008712,5.55e-4 -1.849344,-0.0016 -1.868071,-0.0048 z m 2.867122,-3.667919 v -2.267916 h -1.020928 -1.020927 v 2.267916 2.267917 h 1.020927 1.020928 z m 6.65061,0 V 60.688776 H 39.09771 38.076783 v 2.267916 2.267917 h 1.020927 1.020927 z m 6.643318,0 v -2.267916 h -1.020927 -1.020927 v 2.267916 2.267917 h 1.020927 1.020927 z m 6.650611,0 v -2.267916 h -1.020927 -1.020927 v 2.267916 2.267917 h 1.020927 1.020927 z M 58.838064,42.86266 V 26.443965 H 42.419369 26.000674 V 42.86266 59.281355 h 16.418695 16.418695 z m -30.26782,14.416446 c -0.267866,-0.04503 -0.493363,-0.252676 -0.565693,-0.520899 l -0.01672,-0.06198 V 42.848075 28.999929 l 0.0204,-0.06563 c 0.08033,-0.258499 0.258752,-0.431496 0.517095,-0.501366 l 0.06048,-0.01636 13.789808,-0.0022 c 10.333845,-0.0016 13.80717,-8.5e-5 13.859085,0.0062 0.300627,0.03628 0.536245,0.250215 0.609954,0.553831 0.01281,0.05278 0.01336,0.535181 0.01548,13.815331 0.0015,9.340018 -1.94e-4,13.787579 -0.0053,13.8445 -0.01197,0.134503 -0.0487,0.241937 -0.117483,0.343629 -0.09871,0.145929 -0.242207,0.244745 -0.429769,0.295945 -0.04531,0.01237 -0.657705,0.01299 -13.862731,0.0141 -11.655771,9.82e-4 -13.824603,-3.95e-4 -13.874648,-0.0088 z m 26.876884,-2.230952 v -0.82768 l -2.080139,2.55e-4 -2.080139,2.55e-4 -0.05224,0.107307 c -0.177061,0.363683 -0.473477,0.660651 -0.841851,0.843419 -0.497639,0.246902 -1.077405,0.256727 -1.581999,0.02681 -0.587572,-0.267727 -1.000543,-0.832616 -1.075185,-1.47071 -0.01279,-0.109342 -0.01442,-0.307982 -0.0034,-0.410048 0.09466,-0.873431 0.790215,-1.562478 1.665754,-1.650155 0.181474,-0.01817 0.431047,-3.82e-4 0.612845,0.04369 0.462027,0.111998 0.877975,0.412742 1.133801,0.819776 0.04165,0.06626 0.12413,0.224652 0.134507,0.258286 l 0.0051,0.01641 h 2.08147 2.081471 v -1.378065 -1.378065 l -0.935242,-0.0021 -0.935243,-0.0021 -0.06198,-0.01689 c -0.07648,-0.02084 -0.193571,-0.07716 -0.25067,-0.12058 -0.02356,-0.01792 -0.546825,-0.525888 -1.162809,-1.128826 -1.505974,-1.474079 -1.50563,-1.473742 -1.693999,-1.660074 l -0.16502,-0.163236 -0.07927,0.02682 c -0.202719,0.06859 -0.361498,0.09424 -0.586091,0.09466 -0.211162,3.99e-4 -0.350252,-0.01892 -0.532341,-0.07394 -0.483124,-0.145983 -0.891054,-0.487265 -1.119562,-0.936649 -0.136887,-0.269203 -0.20035,-0.535765 -0.20035,-0.841526 0,-0.300089 0.06406,-0.565817 0.201671,-0.836513 0.181604,-0.357241 0.472374,-0.642833 0.837487,-0.822575 0.248943,-0.122552 0.478278,-0.178827 0.762049,-0.186993 0.38985,-0.01122 0.749321,0.09192 1.071973,0.307562 0.728529,0.486912 1.019709,1.403841 0.702409,2.211896 -0.01782,0.04539 -0.03138,0.08549 -0.03014,0.0891 0.0012,0.0036 0.117123,0.118885 0.257501,0.256146 0.140377,0.137262 0.396338,0.387888 0.568802,0.556946 0.172464,0.169059 0.664429,0.650817 1.093256,1.070573 l 0.779686,0.763193 h 0.738943 0.738944 v -3.361767 -3.361767 h -5.354408 -5.354408 l -0.978366,0.978996 -0.978365,0.978997 0.03533,0.105738 c 0.07341,0.219711 0.09835,0.388457 0.09269,0.627141 -0.0043,0.179414 -0.0226,0.304942 -0.06716,0.459417 -0.08934,0.309779 -0.241102,0.56559 -0.473949,0.798909 -0.26914,0.269685 -0.585376,0.439476 -0.955472,0.513004 -0.235779,0.04684 -0.510569,0.04284 -0.754757,-0.011 -0.491573,-0.108383 -0.930504,-0.427509 -1.189894,-0.865113 -0.152334,-0.256997 -0.233066,-0.517431 -0.255648,-0.824699 -0.01762,-0.239744 0.02115,-0.514182 0.105248,-0.745058 0.211301,-0.580077 0.701053,-1.022153 1.29616,-1.169982 0.355056,-0.0882 0.721295,-0.07065 1.057832,0.05069 0.04609,0.01662 0.09464,0.03385 0.107896,0.03829 l 0.0241,0.0081 1.106215,-1.105096 c 0.947081,-0.946125 1.114081,-1.10991 1.160906,-1.138556 0.0726,-0.04441 0.127795,-0.06831 0.211478,-0.09157 l 0.06928,-0.01925 5.547645,-0.0019 5.547645,-0.0019 V 39.212753 37.929349 H 50.992207 46.53729 l -0.05104,0.103916 c -0.283632,0.577427 -0.823214,0.958804 -1.463517,1.034415 -0.105942,0.01251 -0.325432,0.01064 -0.433075,-0.0037 -0.213409,-0.02842 -0.387116,-0.08104 -0.581447,-0.176141 -0.231975,-0.113524 -0.447763,-0.282962 -0.609768,-0.478793 -0.218997,-0.264722 -0.356618,-0.571674 -0.411242,-0.917241 -0.0188,-0.118928 -0.0188,-0.413414 0,-0.532341 0.06392,-0.404374 0.239419,-0.752652 0.52208,-1.036067 0.05431,-0.05445 0.123351,-0.118434 0.153431,-0.142185 0.226615,-0.178922 0.493751,-0.306304 0.770161,-0.367245 0.181232,-0.03996 0.431887,-0.05078 0.615383,-0.02658 0.507874,0.06699 0.948731,0.32341 1.254764,0.729807 0.07232,0.09604 0.125657,0.183601 0.18323,0.300809 l 0.05104,0.103916 h 4.454917 4.454918 v -1.374605 -1.374606 h -0.674541 c -0.466084,0 -0.674542,0.0024 -0.674542,0.0077 0,0.01259 -0.08458,0.178727 -0.125499,0.246497 -0.139966,0.231841 -0.387819,0.479591 -0.620055,0.619796 -0.721296,0.435458 -1.635621,0.334803 -2.239152,-0.2465 -0.322417,-0.310542 -0.511764,-0.691088 -0.562559,-1.130618 -0.06399,-0.553672 0.13582,-1.120001 0.53514,-1.516806 0.351798,-0.34958 0.811656,-0.539633 1.305719,-0.539633 0.718697,0 1.369394,0.414278 1.67787,1.068246 l 0.03616,0.07665 h 0.670731 0.670732 V 31.09282 29.827599 H 42.419369 29.391611 v 1.265221 1.26522 l 1.084735,-3.97e-4 1.084735,-3.97e-4 0.05576,-0.114457 c 0.09479,-0.194586 0.205424,-0.346224 0.368298,-0.504797 0.273595,-0.26637 0.602701,-0.434496 0.97972,-0.500495 0.131134,-0.02296 0.352778,-0.03092 0.485534,-0.01745 0.587294,0.05959 1.101034,0.383893 1.40845,0.889089 0.121562,0.199769 0.202217,0.418472 0.243594,0.660524 0.02146,0.12555 0.02667,0.366596 0.01087,0.502615 -0.05604,0.482185 -0.301813,0.92831 -0.67846,1.231518 -0.272842,0.219644 -0.579332,0.350458 -0.937642,0.400198 -0.11246,0.01561 -0.368947,0.01195 -0.492233,-0.007 -0.11626,-0.0179 -0.265205,-0.05559 -0.367637,-0.09303 -0.167617,-0.06127 -0.385626,-0.185456 -0.530086,-0.301956 -0.202912,-0.16364 -0.400881,-0.416838 -0.510936,-0.65348 l -0.03522,-0.07574 -1.084735,-3e-6 -1.084735,-3e-6 v 1.374606 1.374605 h 2.185833 2.185834 l 2.009083,-2.007888 c 1.352991,-1.352186 2.022915,-2.016818 2.05144,-2.035235 0.06251,-0.04036 0.15518,-0.08185 0.224589,-0.100558 l 0.06121,-0.0165 4.128996,-0.0037 4.128995,-0.0037 0.05421,-0.109385 c 0.106457,-0.214823 0.248966,-0.403547 0.420375,-0.556701 0.300271,-0.268294 0.661881,-0.427981 1.060442,-0.468291 0.108479,-0.01097 0.351804,-0.005 0.452718,0.01107 0.574522,0.09162 1.060598,0.431062 1.347501,0.940995 0.108008,0.191972 0.186314,0.434281 0.217986,0.674541 0.01499,0.113712 0.01117,0.364176 -0.0074,0.484941 -0.01791,0.116454 -0.05563,0.265453 -0.09308,0.367637 -0.05986,0.163354 -0.171526,0.362837 -0.285618,0.510253 -0.06251,0.08076 -0.228026,0.246283 -0.308792,0.308791 -0.261661,0.202512 -0.553907,0.328591 -0.87789,0.378733 -0.121125,0.01875 -0.371196,0.02259 -0.48494,0.0075 -0.357806,-0.04762 -0.672567,-0.181011 -0.944357,-0.400214 -0.08799,-0.07097 -0.238695,-0.224296 -0.300902,-0.306144 -0.07745,-0.101904 -0.146735,-0.213282 -0.199938,-0.321407 l -0.05113,-0.103916 H 42.43514 38.503492 l -2.012729,2.011134 c -1.876611,1.875123 -2.01681,2.013533 -2.073069,2.046609 -0.06797,0.03996 -0.148783,0.07066 -0.230313,0.0875 -0.04929,0.01018 -0.305571,0.01138 -2.425435,0.01138 h -2.370335 v 1.823084 1.823084 h 2.743747 2.743747 l 1.701653,-1.701665 1.701653,-1.701665 -0.04033,-0.07584 c -0.246468,-0.463497 -0.288257,-0.989182 -0.117607,-1.479446 0.20879,-0.59984 0.725942,-1.060721 1.345144,-1.198781 0.262024,-0.05842 0.546542,-0.05845 0.809449,-7.9e-5 0.245794,0.05457 0.499866,0.173057 0.714008,0.332977 0.08999,0.0672 0.288688,0.265903 0.35589,0.35589 0.169421,0.226866 0.287502,0.487153 0.340453,0.750469 0.04543,0.225929 0.04543,0.510598 0,0.736526 -0.06827,0.339517 -0.235665,0.656618 -0.480578,0.910396 -0.164748,0.170713 -0.314023,0.279944 -0.525048,0.384202 -0.25774,0.127339 -0.513709,0.187287 -0.802157,0.187868 -0.143453,2.88e-4 -0.229131,-0.008 -0.367894,-0.03572 l -0.09078,-0.01812 -1.907316,1.906385 c -1.255546,1.254933 -1.922266,1.916314 -1.951069,1.935442 -0.05815,0.03862 -0.112979,0.06589 -0.175016,0.08705 -0.121079,0.04131 0.07648,0.03882 -3.085613,0.03882 h -2.912336 v 0.765695 0.765696 l 2.765618,4.3e-5 c 2.998636,4.6e-5 2.836334,-0.0021 2.955219,0.03869 0.06217,0.02132 0.117006,0.04862 0.175016,0.08714 0.02864,0.01901 0.547744,0.532724 1.502476,1.486857 l 1.458722,1.457807 0.03256,-0.0115 c 0.0635,-0.02244 0.208877,-0.05595 0.302196,-0.06966 0.574888,-0.08448 1.161424,0.111424 1.57168,0.524945 0.2948,0.297146 0.473588,0.660973 0.528862,1.076214 0.01397,0.104978 0.01586,0.325039 0.0037,0.433894 -0.02382,0.213529 -0.0815,0.409778 -0.17901,0.609094 -0.244334,0.499423 -0.70221,0.865686 -1.239585,0.991566 -0.161582,0.03785 -0.22072,0.04379 -0.430248,0.04325 -0.179295,-4.66e-4 -0.206344,-0.0022 -0.302632,-0.01961 -0.310037,-0.056 -0.582699,-0.17698 -0.831326,-0.368871 -0.08004,-0.06177 -0.253631,-0.235256 -0.314919,-0.314719 -0.193362,-0.250702 -0.319422,-0.533698 -0.369761,-0.830082 -0.06103,-0.359353 -0.01568,-0.723677 0.131328,-1.054982 l 0.03559,-0.08021 -1.292556,-1.292572 -1.292557,-1.292572 h -2.605179 -2.605194 v 1.349082 1.349082 l 0.512286,-2.7e-5 0.512287,-2.8e-5 0.02188,-0.05225 c 0.0291,-0.06949 0.110582,-0.212152 0.169612,-0.296953 0.06896,-0.09907 0.141543,-0.183106 0.240264,-0.278191 0.676666,-0.651745 1.731272,-0.690265 2.457092,-0.08975 0.35719,0.295528 0.584461,0.702044 0.656563,1.174385 0.01756,0.115067 0.01732,0.391911 -4.56e-4,0.509043 -0.09364,0.617121 -0.46673,1.12983 -1.021804,1.404183 -0.190413,0.09411 -0.394952,0.154545 -0.606218,0.179108 -0.123967,0.01441 -0.367242,0.01035 -0.483986,-0.0081 -0.603346,-0.09529 -1.117444,-0.474416 -1.386926,-1.022805 l -0.05107,-0.103916 h -0.509761 -0.509763 v 1.378252 1.378251 h 5.832053 5.832053 l 1.366101,-1.366115 1.366101,-1.366116 -0.03276,-0.09053 c -0.203259,-0.561671 -0.133424,-1.167442 0.190805,-1.655108 0.538535,-0.810001 1.585172,-1.072134 2.433145,-0.609388 0.407203,0.222214 0.723141,0.599429 0.871123,1.04008 0.116165,0.345906 0.125148,0.731462 0.02531,1.086487 -0.164709,0.585733 -0.619764,1.062735 -1.196003,1.253682 -0.224086,0.07426 -0.393917,0.09924 -0.633853,0.09325 -0.212208,-0.0053 -0.350386,-0.02976 -0.552823,-0.0979 l -0.100698,-0.03389 -1.507262,1.506272 c -1.387887,1.386975 -1.512167,1.509246 -1.569184,1.543814 -0.06976,0.0423 -0.145439,0.0734 -0.226126,0.09295 -0.0526,0.01275 -0.28528,0.01333 -6.076339,0.01528 l -6.021646,0.002 v 0.827633 0.827632 h 13.027758 13.027759 z m -5.764301,-1.108498 c 0.153658,-0.03889 0.280217,-0.164045 0.320726,-0.317154 0.0141,-0.05331 0.01371,-0.165209 -7.76e-4,-0.221364 -0.05715,-0.22153 -0.285676,-0.366768 -0.507083,-0.322276 -0.09548,0.01919 -0.159883,0.05385 -0.229595,0.123557 -0.09141,0.09141 -0.130364,0.185758 -0.129794,0.314344 8.7e-4,0.196039 0.135787,0.370005 0.327806,0.422682 0.04955,0.01359 0.165407,0.0137 0.218716,2.11e-4 z M 32.212229,49.775307 c 0.163964,-0.03333 0.298388,-0.161082 0.340499,-0.323595 0.01378,-0.0532 0.0154,-0.158121 0.0032,-0.209322 -0.0046,-0.01947 -0.0215,-0.06296 -0.03749,-0.09665 -0.06946,-0.146324 -0.222941,-0.241382 -0.389747,-0.241382 -0.08047,0 -0.125541,0.01024 -0.198631,0.04515 -0.108185,0.05166 -0.194877,0.156461 -0.231089,0.279363 -0.01998,0.06781 -0.01698,0.174117 0.007,0.248511 0.04198,0.130164 0.144578,0.236288 0.271964,0.281313 0.0828,0.02927 0.148946,0.03396 0.234263,0.01661 z m 6.75445,-0.0075 c 0.230778,-0.06851 0.36498,-0.301174 0.306226,-0.5309 -0.02161,-0.08451 -0.05311,-0.138221 -0.120165,-0.204885 -0.08965,-0.08913 -0.18211,-0.127616 -0.306616,-0.127616 -0.196908,0 -0.357282,0.118699 -0.423662,0.31357 -0.02123,0.06233 -0.01939,0.19099 0.0037,0.261618 0.02228,0.06803 0.07431,0.148121 0.125046,0.192507 0.06215,0.05437 0.154803,0.09748 0.236539,0.110056 0.03823,0.0059 0.137583,-0.0021 0.178893,-0.01435 z m 6.612402,0.0075 c 0.09102,-0.01857 0.155569,-0.05396 0.2237,-0.122625 0.0899,-0.0906 0.128087,-0.181748 0.128671,-0.30709 3.77e-4,-0.08112 -0.0089,-0.121393 -0.04614,-0.199804 -0.05268,-0.110973 -0.16194,-0.19893 -0.28619,-0.230381 -0.05092,-0.01289 -0.147395,-0.01435 -0.202295,-0.0031 -0.07284,0.01498 -0.155983,0.06128 -0.213701,0.119002 -0.176875,0.176875 -0.174748,0.456627 0.0048,0.628348 0.110382,0.105583 0.245138,0.145407 0.39118,0.115602 z m 4.110747,-4.121012 c 0.111902,-0.02764 0.225418,-0.118633 0.276169,-0.221379 0.03681,-0.07452 0.04817,-0.122592 0.04817,-0.203848 0,-0.0381 -0.0048,-0.08733 -0.01066,-0.109385 -0.0402,-0.151267 -0.159887,-0.272549 -0.313677,-0.317862 -0.06773,-0.01996 -0.174193,-0.01698 -0.247939,0.0069 -0.10158,0.03293 -0.197953,0.11112 -0.250159,0.202948 -0.07881,0.138622 -0.07348,0.323541 0.01314,0.455546 0.05421,0.08262 0.147327,0.153499 0.241927,0.184155 0.06741,0.02184 0.161763,0.02297 0.24303,0.0029 z m -8.528387,-0.669981 c 0.07824,-0.01838 0.15023,-0.05852 0.208379,-0.116162 0.09242,-0.09162 0.130584,-0.183286 0.130584,-0.31367 0,-0.128412 -0.03796,-0.221191 -0.127037,-0.310493 -0.111394,-0.111674 -0.267605,-0.155023 -0.419057,-0.116288 -0.08191,0.02095 -0.138274,0.05348 -0.20203,0.116611 -0.08731,0.08645 -0.130472,0.18906 -0.130472,0.31017 0,0.0744 0.01091,0.120799 0.04544,0.193247 0.05383,0.112927 0.161092,0.200945 0.284182,0.233193 0.06485,0.01699 0.14653,0.01831 0.210007,0.0034 z m -1.177794,-7.332007 c 0.192064,-0.04912 0.33163,-0.228665 0.33163,-0.426623 0,-0.197957 -0.139566,-0.3775 -0.33163,-0.426622 -0.07219,-0.01846 -0.146204,-0.01852 -0.217988,-1.58e-4 -0.08238,0.02107 -0.138319,0.05344 -0.201485,0.116611 -0.0618,0.0618 -0.09325,0.115269 -0.115915,0.197043 -0.02891,0.104326 -0.01496,0.223335 0.03804,0.324552 0.0303,0.05787 0.119436,0.146673 0.178039,0.177377 0.09742,0.05104 0.213744,0.06482 0.319309,0.03782 z m 4.926055,0.0069 c 0.08585,-0.01909 0.17026,-0.06581 0.229332,-0.126929 0.20793,-0.21513 0.145887,-0.570457 -0.122242,-0.700092 -0.07971,-0.03854 -0.144092,-0.05142 -0.226958,-0.0454 -0.17961,0.01304 -0.332355,0.134002 -0.387723,0.307058 -0.01508,0.04715 -0.01885,0.07347 -0.01885,0.131834 0,0.125762 0.04666,0.234424 0.138593,0.322757 0.04637,0.04456 0.149676,0.09887 0.209183,0.109988 0.04961,0.0093 0.13877,0.0097 0.178662,7.87e-4 z m -11.52659,-4.167829 c 0.07508,-0.01937 0.141146,-0.05845 0.201724,-0.119311 0.23471,-0.23582 0.133933,-0.631906 -0.186087,-0.731374 -0.06679,-0.02076 -0.177275,-0.02211 -0.240238,-0.0029 -0.128378,0.0391 -0.226757,0.120459 -0.279688,0.231304 -0.03497,0.07323 -0.04523,0.118296 -0.04523,0.198659 0,0.06296 0.01824,0.144558 0.0433,0.193675 0.05581,0.109393 0.165273,0.197705 0.284854,0.229809 0.05406,0.01451 0.165431,0.0146 0.221364,1.68e-4 z m 14.843568,-0.0104 c 0.173791,-0.06136 0.292728,-0.229527 0.292728,-0.413892 0,-0.079 -0.01032,-0.124927 -0.0438,-0.194932 -0.05156,-0.10781 -0.144821,-0.189761 -0.258835,-0.227437 -0.07885,-0.02606 -0.186833,-0.02774 -0.262524,-0.0041 -0.217644,0.06798 -0.350533,0.286906 -0.306783,0.505396 0.0337,0.168307 0.162708,0.305288 0.326596,0.346786 0.05937,0.01503 0.194465,0.0087 0.252615,-0.01182 z m 4.261223,0.01401 c 0.0728,-0.01497 0.156016,-0.06129 0.213039,-0.118578 0.08978,-0.0902 0.131156,-0.190044 0.130383,-0.314659 -0.002,-0.328589 -0.339817,-0.536458 -0.636579,-0.391751 -0.04089,0.01994 -0.06944,0.04146 -0.113091,0.08524 -0.08989,0.09016 -0.127861,0.181282 -0.128096,0.307434 -1.52e-4,0.08223 0.0087,0.120569 0.04586,0.19888 0.05199,0.109521 0.160882,0.19805 0.282836,0.229936 0.04838,0.01265 0.152545,0.01442 0.205649,0.0035 z M 24.589607,52.831284 v -1.020927 l -2.266093,-0.0018 -2.266094,-0.0018 v 1.024597 1.024596 l 2.266094,-0.0018 2.266093,-0.0018 z m 40.191711,-1.2e-5 v -1.024585 l -2.266094,0.0018 -2.266093,0.0018 -0.0019,1.013634 c -10e-4,0.557499 -3.14e-4,1.017737 0.0016,1.02275 0.0028,0.0073 0.46308,0.0091 2.267968,0.0091 h 2.264499 z M 24.593253,46.184319 V 45.163392 H 22.325337 20.05742 v 1.020927 1.020927 h 2.267917 2.267916 z m 40.188065,0 v -1.020927 h -2.267917 -2.267916 v 1.020927 1.020927 h 2.267916 2.267917 z m -40.189862,-6.648787 -0.0018,-1.019104 -2.266093,-0.0018 -2.266094,-0.0018 v 1.020939 1.020939 h 2.267942 2.267942 z m 40.189862,-0.0018 v -1.020939 l -2.266094,0.0018 -2.266093,0.0018 -0.0018,1.019104 -0.0018,1.019104 h 2.267942 2.267942 z M 24.593253,32.89039 V 31.869463 H 22.325337 20.05742 v 1.020927 1.020928 h 2.267917 2.267916 z m 40.188065,0 v -1.020927 h -2.267917 -2.267916 v 1.020927 1.020928 h 2.267916 2.267917 z M 33.468027,22.764982 v -2.264271 h -1.020928 -1.020927 v 2.264271 2.26427 h 1.020927 1.020928 z m 6.65061,0 V 20.500711 H 39.09771 38.076783 v 2.264271 2.26427 h 1.020927 1.020927 z m 6.643318,0 v -2.264271 h -1.020927 -1.020927 v 2.264271 2.26427 h 1.020927 1.020927 z m 6.650611,0 v -2.264271 h -1.020927 -1.020927 v 2.264271 2.26427 h 1.020927 1.020927 z"
       id="path11" /></g><g
     inkscape:groupmode="layer"
     id="layer2"
     inkscape:label="Layer 2"><path
       style="fill:#f29fc5;fill-opacity:0.68333334"
       d="m 2.5610195,55.165873 0.07085,-6.416145 0.727604,-0.08372 0.727604,-0.08372 V 32.402761 16.223235 l 4.440399,-4.440398 4.4403975,-4.4403982 h 13.809751 13.809752 l 0.450624,-0.727605 c 4.187107,-6.76074003 14.294291,-3.802559 13.791215,4.0364282 -0.494203,7.700743 -10.508281,9.535976 -14.067892,2.578155 L 40.321403,12.369522 H 27.690028 15.058653 l -2.972246,2.980702 -2.9722465,2.980702 v 15.143255 15.143255 h 0.529167 0.5291665 v 6.482292 6.482291 H 6.3313315 2.4901695 Z M 49.27522,13.453035 c 1.300451,-0.667663 1.907688,-1.762472 1.907688,-3.439441 V 8.6653548 l -1.058333,-1.058333 c -3.107477,-3.107477 -8.180806,0.885362 -5.749413,4.5249352 1.142908,1.710829 3.10865,2.240803 4.900058,1.321078 z M 11.759994,55.099728 v -6.482292 h 1.058333 1.058333 v -6.895588 -6.895589 l 2.492967,-2.563265 2.492966,-2.563265 5.256841,-0.08534 5.256842,-0.08534 0.509414,-0.75795 c 2.343656,-3.48709 8.068052,-1.746591 8.068052,2.453086 0,4.484193 -5.889808,6.338251 -8.123354,2.557158 L 29.372984,33.007019 H 24.87364 20.374296 l -1.529026,1.513072 -1.529027,1.513072 v 6.292136 6.292136 h 0.926042 0.926042 v 6.482292 6.482291 H 15.46416 11.759994 Z M 35.241763,32.833731 c 1.353836,-1.478133 0.285501,-3.79546 -1.749784,-3.79546 -0.844824,0 -1.179952,0.157473 -1.732425,0.81405 -1.987816,2.362385 1.395797,5.25938 3.482209,2.98141 z"
       id="path12" /><text
       xml:space="preserve"
       transform="matrix(0.54886747,0,0,0.54886747,-36.4384,-10.227628)"
       id="text12"
       style="font-style:normal;font-variant:normal;font-weight:normal;font-stretch:normal;font-size:96px;font-family:'Monosten Stencil';-inkscape-font-specification:'Monosten Stencil';text-align:center;word-spacing:-0.0303816px;white-space:pre;shape-inside:url(#rect13);vector-effect:non-scaling-stroke;fill:#f29fc5;fill-opacity:0.683333;-inkscape-stroke:hairline"
       x="113.15749"
       y="0"><tspan
         x="67.266052"
         y="89.920333"
         id="tspan2"><tspan
           style="fill:#0069b4;fill-opacity:1"
           id="tspan1">HL</tspan></tspan></text></g></svg>
